<mxfile host="app.diagrams.net" modified="2023-09-02T22:19:21.137Z" agent="Mozilla/5.0 (Windows NT 10.0; Win64; x64) AppleWebKit/537.36 (KHTML, like Gecko) Chrome/116.0.0.0 Safari/537.36" etag="wG_h-6RmgaN0SnISH8fJ" version="21.6.1" type="github">
  <diagram name="Página-1" id="1u-UmRTqGDYkcr2TJV2P">
    <mxGraphModel dx="880" dy="470" grid="1" gridSize="10" guides="1" tooltips="1" connect="1" arrows="1" fold="1" page="1" pageScale="1" pageWidth="827" pageHeight="1169" math="0" shadow="0">
      <root>
        <mxCell id="0" />
        <mxCell id="1" parent="0" />
        <mxCell id="50nayKnGvWx3A8Aim5Tb-1" value="Pessoa&lt;br&gt;" style="shape=umlActor;verticalLabelPosition=bottom;verticalAlign=top;html=1;outlineConnect=0;" parent="1" vertex="1">
          <mxGeometry x="100" y="40" width="40" height="60" as="geometry" />
        </mxCell>
        <mxCell id="50nayKnGvWx3A8Aim5Tb-2" value="" style="endArrow=none;html=1;rounded=0;" parent="1" source="50nayKnGvWx3A8Aim5Tb-10" edge="1">
          <mxGeometry width="50" height="50" relative="1" as="geometry">
            <mxPoint x="130" y="991.6666666666666" as="sourcePoint" />
            <mxPoint x="120" y="130" as="targetPoint" />
          </mxGeometry>
        </mxCell>
        <mxCell id="50nayKnGvWx3A8Aim5Tb-6" value="APP" style="ellipse;whiteSpace=wrap;html=1;aspect=fixed;" parent="1" vertex="1">
          <mxGeometry x="285" y="50" width="65" height="65" as="geometry" />
        </mxCell>
        <mxCell id="50nayKnGvWx3A8Aim5Tb-7" value="" style="endArrow=none;html=1;rounded=0;" parent="1" source="50nayKnGvWx3A8Aim5Tb-17" edge="1">
          <mxGeometry width="50" height="50" relative="1" as="geometry">
            <mxPoint x="320" y="991.6666666666665" as="sourcePoint" />
            <mxPoint x="320" y="130" as="targetPoint" />
          </mxGeometry>
        </mxCell>
        <mxCell id="50nayKnGvWx3A8Aim5Tb-8" value="" style="endArrow=classic;html=1;rounded=0;strokeWidth=1;" parent="1" edge="1">
          <mxGeometry width="50" height="50" relative="1" as="geometry">
            <mxPoint x="125" y="170" as="sourcePoint" />
            <mxPoint x="310" y="170" as="targetPoint" />
          </mxGeometry>
        </mxCell>
        <mxCell id="50nayKnGvWx3A8Aim5Tb-16" value="" style="edgeStyle=orthogonalEdgeStyle;rounded=0;orthogonalLoop=1;jettySize=auto;html=1;strokeColor=default;strokeWidth=1;" parent="1" edge="1">
          <mxGeometry relative="1" as="geometry">
            <mxPoint x="120" y="250" as="sourcePoint" />
            <mxPoint x="310" y="250" as="targetPoint" />
          </mxGeometry>
        </mxCell>
        <mxCell id="50nayKnGvWx3A8Aim5Tb-9" value="&lt;font style=&quot;font-size: 12px;&quot;&gt;Manter Uso de Hormônios&lt;/font&gt;" style="text;html=1;align=center;verticalAlign=middle;resizable=0;points=[];autosize=1;strokeColor=none;fillColor=none;strokeWidth=2;perimeterSpacing=20;rounded=0;" parent="1" vertex="1">
          <mxGeometry x="130" y="150" width="160" height="30" as="geometry" />
        </mxCell>
        <mxCell id="50nayKnGvWx3A8Aim5Tb-11" value="" style="endArrow=none;html=1;rounded=0;" parent="1" source="50nayKnGvWx3A8Aim5Tb-24" target="50nayKnGvWx3A8Aim5Tb-10" edge="1">
          <mxGeometry width="50" height="50" relative="1" as="geometry">
            <mxPoint x="115" y="991.6666666666666" as="sourcePoint" />
            <mxPoint x="120" y="130" as="targetPoint" />
          </mxGeometry>
        </mxCell>
        <mxCell id="50nayKnGvWx3A8Aim5Tb-10" value="" style="rounded=1;whiteSpace=wrap;html=1;" parent="1" vertex="1">
          <mxGeometry x="115" y="170" width="10" height="60" as="geometry" />
        </mxCell>
        <mxCell id="50nayKnGvWx3A8Aim5Tb-18" value="" style="endArrow=none;html=1;rounded=0;" parent="1" target="50nayKnGvWx3A8Aim5Tb-17" edge="1" source="NWq00n8EmG-2OFzhJ13h-8">
          <mxGeometry width="50" height="50" relative="1" as="geometry">
            <mxPoint x="318.75" y="991.6666666666665" as="sourcePoint" />
            <mxPoint x="323.75" y="130" as="targetPoint" />
          </mxGeometry>
        </mxCell>
        <mxCell id="50nayKnGvWx3A8Aim5Tb-17" value="" style="rounded=1;whiteSpace=wrap;html=1;" parent="1" vertex="1">
          <mxGeometry x="316.25" y="170" width="10" height="40" as="geometry" />
        </mxCell>
        <mxCell id="50nayKnGvWx3A8Aim5Tb-20" value="" style="endArrow=classic;html=1;rounded=0;entryX=1.033;entryY=0.856;entryDx=0;entryDy=0;entryPerimeter=0;dashed=1;strokeWidth=1;" parent="1" edge="1">
          <mxGeometry width="50" height="50" relative="1" as="geometry">
            <mxPoint x="320" y="210" as="sourcePoint" />
            <mxPoint x="124.99999999999993" y="210.36" as="targetPoint" />
          </mxGeometry>
        </mxCell>
        <mxCell id="50nayKnGvWx3A8Aim5Tb-21" value="&lt;font style=&quot;font-size: 12px;&quot;&gt;Exibir listas e horários&amp;nbsp;&lt;/font&gt;" style="text;html=1;align=center;verticalAlign=middle;resizable=0;points=[];autosize=1;strokeColor=none;fillColor=none;strokeWidth=4;" parent="1" vertex="1">
          <mxGeometry x="150" y="190" width="140" height="30" as="geometry" />
        </mxCell>
        <mxCell id="50nayKnGvWx3A8Aim5Tb-25" value="" style="endArrow=none;html=1;rounded=0;" parent="1" target="50nayKnGvWx3A8Aim5Tb-24" edge="1">
          <mxGeometry width="50" height="50" relative="1" as="geometry">
            <mxPoint x="120" y="992" as="sourcePoint" />
            <mxPoint x="135" y="230" as="targetPoint" />
          </mxGeometry>
        </mxCell>
        <mxCell id="50nayKnGvWx3A8Aim5Tb-24" value="" style="rounded=1;whiteSpace=wrap;html=1;" parent="1" vertex="1">
          <mxGeometry x="115" y="250" width="10" height="80" as="geometry" />
        </mxCell>
        <mxCell id="50nayKnGvWx3A8Aim5Tb-26" value="&lt;font style=&quot;font-size: 12px;&quot;&gt;Editar informações&lt;/font&gt;" style="text;html=1;align=center;verticalAlign=middle;resizable=0;points=[];autosize=1;strokeColor=none;fillColor=none;strokeWidth=1;" parent="1" vertex="1">
          <mxGeometry x="160" y="230" width="120" height="30" as="geometry" />
        </mxCell>
        <mxCell id="NWq00n8EmG-2OFzhJ13h-1" value="" style="edgeStyle=orthogonalEdgeStyle;rounded=0;orthogonalLoop=1;jettySize=auto;html=1;strokeColor=default;strokeWidth=1;" edge="1" parent="1">
          <mxGeometry relative="1" as="geometry">
            <mxPoint x="324" y="360" as="sourcePoint" />
            <mxPoint x="520" y="360" as="targetPoint" />
          </mxGeometry>
        </mxCell>
        <mxCell id="NWq00n8EmG-2OFzhJ13h-2" value="Realizar Alterações" style="text;html=1;align=center;verticalAlign=middle;resizable=0;points=[];autosize=1;strokeColor=none;fillColor=none;" vertex="1" parent="1">
          <mxGeometry x="345" y="340" width="130" height="30" as="geometry" />
        </mxCell>
        <mxCell id="NWq00n8EmG-2OFzhJ13h-3" value="" style="endArrow=classic;html=1;rounded=0;dashed=1;strokeWidth=1;entryX=1;entryY=0.5;entryDx=0;entryDy=0;" edge="1" parent="1" target="50nayKnGvWx3A8Aim5Tb-24">
          <mxGeometry width="50" height="50" relative="1" as="geometry">
            <mxPoint x="319.67" y="290" as="sourcePoint" />
            <mxPoint x="150" y="290" as="targetPoint" />
          </mxGeometry>
        </mxCell>
        <mxCell id="NWq00n8EmG-2OFzhJ13h-4" value="Exibir dados atualizados" style="text;html=1;align=center;verticalAlign=middle;resizable=0;points=[];autosize=1;strokeColor=none;fillColor=none;" vertex="1" parent="1">
          <mxGeometry x="140" y="270" width="150" height="30" as="geometry" />
        </mxCell>
        <mxCell id="NWq00n8EmG-2OFzhJ13h-5" value="" style="edgeStyle=orthogonalEdgeStyle;rounded=0;orthogonalLoop=1;jettySize=auto;html=1;strokeColor=default;strokeWidth=1;" edge="1" parent="1">
          <mxGeometry relative="1" as="geometry">
            <mxPoint x="120" y="330" as="sourcePoint" />
            <mxPoint x="320" y="330" as="targetPoint" />
          </mxGeometry>
        </mxCell>
        <mxCell id="NWq00n8EmG-2OFzhJ13h-6" value="Confirmar Mudanças" style="text;html=1;align=center;verticalAlign=middle;resizable=0;points=[];autosize=1;strokeColor=none;fillColor=none;" vertex="1" parent="1">
          <mxGeometry x="160" y="310" width="130" height="30" as="geometry" />
        </mxCell>
        <mxCell id="NWq00n8EmG-2OFzhJ13h-9" value="" style="endArrow=none;html=1;rounded=0;" edge="1" parent="1" source="NWq00n8EmG-2OFzhJ13h-10" target="NWq00n8EmG-2OFzhJ13h-8">
          <mxGeometry width="50" height="50" relative="1" as="geometry">
            <mxPoint x="318.75" y="991.6666666666665" as="sourcePoint" />
            <mxPoint x="323.75" y="210" as="targetPoint" />
          </mxGeometry>
        </mxCell>
        <mxCell id="NWq00n8EmG-2OFzhJ13h-8" value="" style="rounded=1;whiteSpace=wrap;html=1;" vertex="1" parent="1">
          <mxGeometry x="316.25" y="250" width="10" height="40" as="geometry" />
        </mxCell>
        <mxCell id="NWq00n8EmG-2OFzhJ13h-11" value="" style="endArrow=none;html=1;rounded=0;" edge="1" parent="1" target="NWq00n8EmG-2OFzhJ13h-10">
          <mxGeometry width="50" height="50" relative="1" as="geometry">
            <mxPoint x="320" y="991.6666666666665" as="sourcePoint" />
            <mxPoint x="322" y="290" as="targetPoint" />
          </mxGeometry>
        </mxCell>
        <mxCell id="NWq00n8EmG-2OFzhJ13h-10" value="" style="rounded=1;whiteSpace=wrap;html=1;" vertex="1" parent="1">
          <mxGeometry x="316.25" y="360" width="10" height="40" as="geometry" />
        </mxCell>
        <mxCell id="NWq00n8EmG-2OFzhJ13h-12" value="Banco de&amp;nbsp;&lt;br&gt;Dados" style="ellipse;whiteSpace=wrap;html=1;aspect=fixed;" vertex="1" parent="1">
          <mxGeometry x="490" y="50" width="65" height="65" as="geometry" />
        </mxCell>
        <mxCell id="NWq00n8EmG-2OFzhJ13h-13" value="" style="endArrow=none;html=1;rounded=0;" edge="1" parent="1">
          <mxGeometry width="50" height="50" relative="1" as="geometry">
            <mxPoint x="522.08" y="990" as="sourcePoint" />
            <mxPoint x="522.08" y="130" as="targetPoint" />
          </mxGeometry>
        </mxCell>
      </root>
    </mxGraphModel>
  </diagram>
</mxfile>
